# xmcd
# 
# Track frame offsets:
#     150
#     12035
#     31332
#     47407
#     63630
#     77165
#     87835
#     116692
#     124577
#     145255
# 
# Disc length: 2098
# 
# Revision: 3
# Processed by: cddbd v1.5.2PL0 Copyright (c) Steve Scherf et al.
# Submitted via: BonkEnc v1.0
# 
DISCID=7a08300a
DTITLE=B.B. King - Live At The Regal
DYEAR=1965
DGENRE=Blues
TTITLE0=Every Day I Have The Blues
TTITLE1=Sweet Little Angel
TTITLE2=It's My Own Fault
TTITLE3=How Blue Can You Get?
TTITLE4=Please Love Me
TTITLE5=You Upset Me Baby
TTITLE6=Worry, Worry
TTITLE7=Woke Up This Mornin' (My Baby's Gone)
TTITLE8=You Done Lost Your Good Thing Now
TTITLE9=Help The Poor
EXTD=
EXTT0=
EXTT1=
EXTT2=
EXTT3=
EXTT4=
EXTT5=
EXTT6=
EXTT7=
EXTT8=
EXTT9=
PLAYORDER=
